<svg width="982" height="569" viewBox="0 0 982 569" fill="none" xmlns="http://www.w3.org/2000/svg">
<path fill-rule="evenodd" clip-rule="evenodd" d="M4.65595e-10 13C-3.05166e-05 17 1.50009 22.5 9.50015 25.5C9.50015 25.5 82.0001 34.5 112.5 38L195.5 313.5C196.5 316 200.7 320.9 209.5 320.5C215.54 320.225 305.136 296.699 390.494 273.938C390.516 273.863 390.538 273.789 390.56 273.714C394.98 258.478 399.612 243.975 404.457 230.205L411.761 209.735C423.425 174.688 432.418 146.899 438.742 126.369C438.89 125.823 439.124 125.065 439.446 124.095C439.742 123.002 440.372 121.001 441.335 118.093C442.274 115.06 443.188 112.227 444.078 109.592C444.943 106.833 446.018 103.838 447.304 100.606C448.565 97.2504 449.789 94.3542 450.978 91.9177C452.141 89.3569 453.329 87.2433 454.544 85.5768C455.733 83.7862 456.824 82.7906 457.817 82.5901C458.687 82.4147 459.221 82.8236 459.422 83.8169C459.773 85.5552 459.394 89.1206 458.286 94.5132C457.301 99.8806 456.217 104.751 455.032 109.126L453.106 115.911C453.032 116.184 453.02 116.445 453.071 116.693C453.146 117.066 453.307 117.227 453.556 117.177C453.804 117.127 454.126 116.803 454.523 116.206C454.77 115.51 455.178 114.653 455.748 113.633C456.318 112.614 457.482 110.699 459.241 107.889C460.974 104.954 462.659 102.417 464.295 100.278C466.03 97.9898 468.051 95.8374 470.357 93.8212C472.788 91.78 475.059 90.5463 477.17 90.1203C482.012 89.143 485.235 92.6275 486.839 100.574C488.142 107.03 487.821 115.365 485.877 125.579C485.927 125.827 485.533 127.716 484.694 131.244C483.98 134.748 482.585 139.359 480.508 145.076C478.431 150.793 475.895 156.474 472.899 162.118C469.878 167.638 465.739 172.738 460.481 177.418C455.347 182.072 449.676 185.026 443.467 186.279C441.729 186.629 440.065 186.707 438.475 186.511C436.91 186.439 435.704 186.23 434.859 185.884C434.039 185.662 433.505 185.576 433.256 185.626L432.103 186.634C429.753 192.277 426.268 202.543 421.649 217.431C417.03 232.319 413.462 244.733 410.946 254.674C410.551 255.917 410.044 257.57 409.427 259.633C408.851 261.557 407.727 264.941 406.054 269.785C439.526 260.842 471.493 252.25 496.5 245.5C498.667 244.833 503.3 242 504.5 236C505.7 230 522.334 127.167 530.5 76.5C530.5 73.3333 528.5 66.5 520.5 64.5C515.942 63.3605 435.417 65.305 344.777 67.929C337.365 91.24 331.915 108.321 328.427 119.172C325.487 128.294 322.806 136.459 320.384 143.667C317.937 150.751 316.17 155.76 315.082 158.693C314.118 161.601 313.278 164.161 312.562 166.373C311.82 168.461 311.277 170.251 310.932 171.742C310.883 172.14 310.896 172.525 310.971 172.897C311.096 173.518 311.283 173.803 311.531 173.753C311.78 173.703 312.201 173.23 312.796 172.335C334.368 135.805 349.501 116.663 358.192 114.909C359.93 114.558 360.975 115.252 361.326 116.99C361.426 117.487 361.403 118.654 361.257 120.493C361.086 122.207 360.335 125.848 359.003 131.414C357.672 136.981 355.708 143.257 353.112 150.242C351.454 154.195 349.477 159.763 347.179 166.946C344.882 174.129 343.933 178.714 344.334 180.701C344.56 181.818 345.231 182.264 346.349 182.039C346.721 181.963 347.193 181.739 347.764 181.365C348.433 180.843 349.128 180.121 349.846 179.201C350.565 178.28 351.172 177.447 351.668 176.701C352.288 175.93 353.105 174.86 354.122 173.492C355.237 171.975 356.055 170.905 356.575 170.283C359.159 166.392 362.21 161.486 365.729 155.564C366.034 154.501 366.361 153.427 366.712 152.343C370.665 139.915 376.756 128.801 384.986 118.999C393.315 109.047 402.26 103.107 411.821 101.177C418.774 99.7741 422.802 101.804 423.905 107.267C424.506 110.247 423.83 114.583 421.878 120.275C421.779 120.424 421.754 120.623 421.804 120.872C421.855 121.12 422.004 121.219 422.252 121.169C426.47 118.379 430.181 116.596 433.384 115.821C434.552 115.844 435.186 116.103 435.286 116.6C435.436 117.345 435.115 118.314 434.322 119.508C433.232 121.15 431.547 123.363 429.266 126.15C427.11 128.911 425.833 130.59 425.437 131.187L423.544 135.252C422.415 143.104 419.921 151.554 416.061 160.603C412.301 169.503 407.111 177.722 400.492 185.261C393.997 192.774 387.21 197.245 380.133 198.674C371.318 200.453 365.82 195.941 363.639 185.139C362.463 179.308 362.384 172.967 363.405 166.116C359.851 171.776 356.513 176.868 353.39 181.393C341.272 198.182 332.854 207.053 328.136 208.005C326.274 208.381 325.104 207.389 324.628 205.03C323.726 200.56 324.906 193.28 328.167 183.188C331.403 172.973 334.715 163.453 338.103 154.628C341.59 145.654 343.195 140.484 342.92 139.119C342.769 138.374 342.322 138.076 341.577 138.227C338.597 138.828 333.875 144.562 327.41 155.429C320.946 166.297 315.597 175.969 311.364 184.448C306.635 193.672 302.388 201.12 298.622 206.79C294.98 212.435 292.477 215.719 291.113 216.64L288.917 218.247C287.799 218.472 287.115 217.964 286.865 216.722C286.464 214.736 286.867 210.972 288.075 205.43C289.282 199.888 290.59 194.843 291.998 190.295L294.11 183.472L312.639 125.459C319.871 103.341 326.501 84.2829 332.53 68.2859C322.01 68.5943 311.395 68.9103 300.785 69.2302C301.363 69.9563 301.752 70.8107 301.95 71.7934C302.451 74.2766 301.565 78.849 299.291 85.5105C297.017 92.172 295.014 97.2929 293.282 100.873C292.538 101.669 291.855 102.13 291.235 102.255C290.366 102.431 289.781 101.774 289.48 100.284C288.778 96.807 288.198 92.0136 287.741 85.9034C285.786 76.2187 281.084 72.1282 273.634 73.6317C267.302 74.9098 262.339 78.1727 258.746 83.4206C255.278 88.6434 254.17 94.3588 255.423 100.567C257.077 108.762 262.238 119.608 270.907 133.107C279.699 146.58 284.897 157.29 286.501 165.237C289.508 180.136 286.092 193.619 276.251 205.684C266.509 217.6 254.313 225.037 239.661 227.994C237.178 228.495 234.148 228.848 230.571 229.053C226.994 229.258 223.169 229.19 219.094 228.85C215.045 228.633 211.516 227.795 208.507 226.335C205.35 224.775 203.508 222.692 202.981 220.084C202.781 219.091 202.779 218.122 202.976 217.178C203.961 211.81 205.589 205.473 207.862 198.166C210.258 190.833 212.409 184.843 214.314 180.194L217.208 173.407C218.445 170.573 219.933 168.981 221.671 168.63C223.037 168.354 223.858 168.899 224.133 170.265L223.951 172.24C221.761 184.441 221.493 194.639 223.147 202.834C224.475 209.414 226.993 214.527 230.701 218.172C234.508 221.668 239.516 222.79 245.724 221.537C255.036 219.657 261.733 214.106 265.816 204.883C269.874 195.535 270.95 186.143 269.046 176.707C267.417 168.636 262.305 157.715 253.71 143.943C245.215 130.022 240.429 120.392 239.351 115.053C237.021 103.506 240.058 93.2658 248.464 84.3329C254.401 77.9919 261.141 73.2843 268.683 70.21C225.029 71.5579 183.227 72.9091 150.5 74L134 21C132.834 18.6667 129.1 14 123.5 14C117.9 14 46.8335 5 12.0001 0.5C8.66681 0.666667 4.65595e-10 4 4.65595e-10 13ZM416.053 113.504C416.529 115.863 416.709 119.315 416.593 123.862C416.569 124.383 416.098 124.931 415.18 125.504C409.3 129.663 406.723 133.542 407.45 137.143C407.55 137.64 407.687 138 407.862 138.223C408.502 149.077 406.212 160.459 400.991 172.367C395.895 184.25 390.739 190.718 385.524 191.771C382.172 192.447 380.019 190.426 379.067 185.708C377.764 179.252 378.53 169.922 381.365 157.72C384.325 145.493 388.503 134.183 393.9 123.79C399.297 113.397 404.417 107.711 409.26 106.734C412.736 106.032 415.001 108.289 416.053 113.504ZM435.259 180.182C435.034 179.065 435.118 177.884 435.514 176.642L440.443 161.691C443.58 151.625 447.598 140.799 452.496 129.214C457.494 117.48 461.728 109.971 465.2 106.686C466.168 105.715 467.21 105.117 468.327 104.892C470.19 104.516 471.384 105.632 471.91 108.239C472.662 111.964 472.238 118.187 470.639 126.91L469.381 132.203C468.692 135.831 467.458 140.28 465.679 145.549C463.998 150.67 462.02 155.915 459.744 161.284C457.567 166.505 454.831 171.192 451.534 175.347C448.212 179.377 444.751 181.755 441.151 182.482C437.674 183.184 435.71 182.417 435.259 180.182Z" fill="#333333"/>
<circle cx="235" cy="379.5" r="42.5" fill="#333333"/>
<circle cx="493" cy="350.5" r="42.5" fill="#333333"/>
<path d="M705.58 421.38C671.553 421.38 644.1 410.747 623.22 389.48C602.34 367.827 591.9 339.407 591.9 304.22V119.78C591.9 84.5933 602.34 56.3667 623.22 35.1C644.1 13.4467 671.553 2.62 705.58 2.62C728.007 2.62 747.92 7.45332 765.32 17.12C782.72 26.7867 796.06 40.5133 805.34 58.3C815.007 76.0867 819.84 96.58 819.84 119.78V304.22C819.84 327.42 815.007 347.913 805.34 365.7C796.06 383.487 782.72 397.213 765.32 406.88C747.92 416.547 728.007 421.38 705.58 421.38ZM705.58 351.2C715.247 351.2 722.98 347.333 728.78 339.6C734.967 331.867 738.06 321.62 738.06 308.86V115.14C738.06 102.38 734.967 92.1333 728.78 84.4C722.98 76.6667 715.247 72.8 705.58 72.8C695.913 72.8 688.18 76.6667 682.38 84.4C676.58 92.1333 673.68 102.38 673.68 115.14V308.86C673.68 321.62 676.58 331.867 682.38 339.6C688.18 347.333 695.913 351.2 705.58 351.2Z" fill="white"/>
<path d="M895.312 10.74C898.406 9.57999 901.306 8.99998 904.012 8.99998H974.192C976.126 8.99998 977.672 9.77332 978.832 11.32C980.379 12.48 981.152 14.0267 981.152 15.96V408.04C981.152 409.973 980.379 411.713 978.832 413.26C977.672 414.42 976.126 415 974.192 415H906.332C904.399 415 902.659 414.42 901.112 413.26C899.952 411.713 899.372 409.973 899.372 408.04V91.36C899.372 89.8133 898.406 89.04 896.472 89.04L851.812 94.26H850.652C846.399 94.26 844.272 92.1333 844.272 87.88L842.532 38C842.532 34.1333 844.272 31.4267 847.752 29.88L895.312 10.74Z" fill="white"/>
<path d="M695.27 543.72C691.25 543.72 688.01 542.49 685.55 540.03C683.15 537.51 681.95 534.24 681.95 530.22V510.42C681.95 506.46 683.18 503.22 685.64 500.7C688.1 498.18 691.31 496.92 695.27 496.92C699.35 496.92 702.62 498.18 705.08 500.7C707.54 503.16 708.77 506.4 708.77 510.42V530.22C708.77 534.24 707.54 537.51 705.08 540.03C702.62 542.49 699.35 543.72 695.27 543.72ZM695.27 539.49C697.85 539.49 699.95 538.62 701.57 536.88C703.19 535.08 704 532.8 704 530.04V510.69C704 507.87 703.19 505.59 701.57 503.85C699.95 502.05 697.85 501.15 695.27 501.15C692.75 501.15 690.68 502.05 689.06 503.85C687.5 505.59 686.72 507.87 686.72 510.69V530.04C686.72 532.8 687.5 535.08 689.06 536.88C690.68 538.62 692.75 539.49 695.27 539.49ZM740.74 497.01C744.4 497.01 747.22 498.24 749.2 500.7C751.18 503.16 752.17 506.61 752.17 511.05V542.1C752.17 542.7 751.87 543 751.27 543H748.3C747.7 543 747.4 542.7 747.4 542.1V511.5C747.4 508.26 746.68 505.74 745.24 503.94C743.8 502.14 741.79 501.24 739.21 501.24C736.57 501.24 734.5 502.2 733 504.12C731.5 506.04 730.75 508.68 730.75 512.04V542.1C730.75 542.7 730.45 543 729.85 543H726.88C726.28 543 725.98 542.7 725.98 542.1V498.54C725.98 497.94 726.28 497.64 726.88 497.64H729.85C730.45 497.64 730.75 497.94 730.75 498.54V501.96C730.75 502.14 730.78 502.23 730.84 502.23C730.96 502.23 731.08 502.17 731.2 502.05C733.24 498.69 736.42 497.01 740.74 497.01ZM795.548 521.13C795.548 521.73 795.248 522.03 794.648 522.03H773.948C773.708 522.03 773.588 522.15 773.588 522.39V530.04C773.588 532.8 774.368 535.08 775.928 536.88C777.548 538.62 779.618 539.49 782.138 539.49C784.238 539.49 786.038 538.86 787.538 537.6C789.038 536.34 790.028 534.69 790.508 532.65C790.688 532.11 791.018 531.84 791.498 531.84L794.378 532.02C794.618 532.02 794.828 532.08 795.008 532.2C795.188 532.32 795.248 532.5 795.188 532.74V533.1C794.588 536.4 793.148 539.01 790.868 540.93C788.588 542.79 785.678 543.72 782.138 543.72C778.178 543.72 774.968 542.49 772.508 540.03C770.048 537.51 768.818 534.27 768.818 530.31V510.42C768.818 506.46 770.048 503.22 772.508 500.7C774.968 498.18 778.178 496.92 782.138 496.92C786.158 496.92 789.398 498.18 791.858 500.7C794.318 503.22 795.548 506.46 795.548 510.42V521.13ZM782.138 501.15C779.618 501.15 777.548 502.05 775.928 503.85C774.368 505.59 773.588 507.87 773.588 510.69V517.53C773.588 517.77 773.708 517.89 773.948 517.89H790.418C790.658 517.89 790.778 517.77 790.778 517.53V510.69C790.778 507.87 789.968 505.59 788.348 503.85C786.788 502.05 784.718 501.15 782.138 501.15ZM847.62 543.45C843.72 543.45 840.57 542.4 838.17 540.3C835.83 538.14 834.66 535.38 834.66 532.02V531.48C834.66 530.88 834.96 530.58 835.56 530.58H838.35C838.95 530.58 839.25 530.88 839.25 531.48V532.02C839.25 534.18 840.03 535.98 841.59 537.42C843.15 538.86 845.16 539.58 847.62 539.58C850.02 539.58 851.94 538.86 853.38 537.42C854.88 535.92 855.63 534 855.63 531.66C855.63 529.92 855.21 528.48 854.37 527.34C853.53 526.2 852.48 525.3 851.22 524.64C849.96 523.92 848.25 523.11 846.09 522.21C843.75 521.25 841.83 520.32 840.33 519.42C838.83 518.46 837.54 517.17 836.46 515.55C835.44 513.87 834.93 511.77 834.93 509.25C834.93 505.59 836.07 502.68 838.35 500.52C840.63 498.36 843.66 497.28 847.44 497.28C851.28 497.28 854.34 498.39 856.62 500.61C858.9 502.83 860.04 505.71 860.04 509.25V509.52C860.04 510.12 859.74 510.42 859.14 510.42H856.44C855.84 510.42 855.54 510.12 855.54 509.52V509.07C855.54 506.85 854.79 504.99 853.29 503.49C851.79 501.99 849.84 501.24 847.44 501.24C845.04 501.24 843.12 501.99 841.68 503.49C840.24 504.93 839.52 506.82 839.52 509.16C839.52 510.78 839.91 512.13 840.69 513.21C841.47 514.29 842.43 515.16 843.57 515.82C844.77 516.48 846.42 517.29 848.52 518.25C850.98 519.27 852.99 520.26 854.55 521.22C856.17 522.12 857.55 523.41 858.69 525.09C859.83 526.77 860.4 528.9 860.4 531.48C860.4 535.08 859.23 537.99 856.89 540.21C854.55 542.37 851.46 543.45 847.62 543.45ZM890.304 500.52C890.304 501.12 890.004 501.42 889.404 501.42H882.204C881.964 501.42 881.844 501.54 881.844 501.78V530.76C881.844 533.76 882.354 535.86 883.374 537.06C884.394 538.2 886.014 538.77 888.234 538.77H889.134C889.734 538.77 890.034 539.07 890.034 539.67V542.1C890.034 542.7 889.734 543 889.134 543H887.334C883.974 543 881.424 542.22 879.684 540.66C878.004 539.1 877.164 536.19 877.164 531.93V501.78C877.164 501.54 877.044 501.42 876.804 501.42H873.114C872.514 501.42 872.214 501.12 872.214 500.52V498.54C872.214 497.94 872.514 497.64 873.114 497.64H876.804C877.044 497.64 877.164 497.52 877.164 497.28V487.2C877.164 486.6 877.464 486.3 878.064 486.3H880.944C881.544 486.3 881.844 486.6 881.844 487.2V497.28C881.844 497.52 881.964 497.64 882.204 497.64H889.404C890.004 497.64 890.304 497.94 890.304 498.54V500.52ZM917.64 543.72C913.62 543.72 910.38 542.49 907.92 540.03C905.52 537.51 904.32 534.24 904.32 530.22V510.42C904.32 506.46 905.55 503.22 908.01 500.7C910.47 498.18 913.68 496.92 917.64 496.92C921.72 496.92 924.99 498.18 927.45 500.7C929.91 503.16 931.14 506.4 931.14 510.42V530.22C931.14 534.24 929.91 537.51 927.45 540.03C924.99 542.49 921.72 543.72 917.64 543.72ZM917.64 539.49C920.22 539.49 922.32 538.62 923.94 536.88C925.56 535.08 926.37 532.8 926.37 530.04V510.69C926.37 507.87 925.56 505.59 923.94 503.85C922.32 502.05 920.22 501.15 917.64 501.15C915.12 501.15 913.05 502.05 911.43 503.85C909.87 505.59 909.09 507.87 909.09 510.69V530.04C909.09 532.8 909.87 535.08 911.43 536.88C913.05 538.62 915.12 539.49 917.64 539.49ZM963.111 496.92C966.831 496.92 969.801 498.18 972.021 500.7C974.301 503.16 975.441 506.4 975.441 510.42V530.22C975.441 534.24 974.301 537.51 972.021 540.03C969.801 542.49 966.831 543.72 963.111 543.72C961.311 543.72 959.631 543.36 958.071 542.64C956.511 541.92 955.191 540.87 954.111 539.49C953.991 539.37 953.871 539.34 953.751 539.4C953.691 539.4 953.661 539.46 953.661 539.58V559.74C953.661 560.34 953.361 560.64 952.761 560.64H949.791C949.191 560.64 948.891 560.34 948.891 559.74V498.54C948.891 497.94 949.191 497.64 949.791 497.64H952.761C953.361 497.64 953.661 497.94 953.661 498.54V501.06C953.661 501.18 953.721 501.27 953.841 501.33C953.961 501.33 954.051 501.27 954.111 501.15C955.191 499.77 956.511 498.72 958.071 498C959.631 497.28 961.311 496.92 963.111 496.92ZM970.761 510.6C970.761 507.84 969.951 505.59 968.331 503.85C966.711 502.05 964.611 501.15 962.031 501.15C959.571 501.15 957.561 502.02 956.001 503.76C954.441 505.5 953.661 507.78 953.661 510.6V530.04C953.661 532.86 954.441 535.14 956.001 536.88C957.561 538.62 959.571 539.49 962.031 539.49C964.611 539.49 966.711 538.62 968.331 536.88C969.951 535.08 970.761 532.8 970.761 530.04V510.6Z" fill="black"/>
<path d="M185.23 543C184.63 543 184.33 542.7 184.33 542.1V539.22C184.33 538.86 184.42 538.47 184.6 538.05L204.13 502.5C204.19 502.38 204.19 502.29 204.13 502.23C204.13 502.11 204.07 502.05 203.95 502.05H185.5C184.9 502.05 184.6 501.75 184.6 501.15V498.54C184.6 497.94 184.9 497.64 185.5 497.64H209.08C209.68 497.64 209.98 497.94 209.98 498.54V501.42C209.98 501.84 209.89 502.23 209.71 502.59L190.09 538.14C190.03 538.26 190 538.38 190 538.5C190.06 538.56 190.15 538.59 190.27 538.59H209.08C209.68 538.59 209.98 538.89 209.98 539.49V542.1C209.98 542.7 209.68 543 209.08 543H185.23ZM251.148 521.13C251.148 521.73 250.848 522.03 250.248 522.03H229.548C229.308 522.03 229.188 522.15 229.188 522.39V530.04C229.188 532.8 229.968 535.08 231.528 536.88C233.148 538.62 235.218 539.49 237.738 539.49C239.838 539.49 241.638 538.86 243.138 537.6C244.638 536.34 245.628 534.69 246.108 532.65C246.288 532.11 246.618 531.84 247.098 531.84L249.978 532.02C250.218 532.02 250.428 532.08 250.608 532.2C250.788 532.32 250.848 532.5 250.788 532.74V533.1C250.188 536.4 248.748 539.01 246.468 540.93C244.188 542.79 241.278 543.72 237.738 543.72C233.778 543.72 230.568 542.49 228.108 540.03C225.648 537.51 224.418 534.27 224.418 530.31V510.42C224.418 506.46 225.648 503.22 228.108 500.7C230.568 498.18 233.778 496.92 237.738 496.92C241.758 496.92 244.998 498.18 247.458 500.7C249.918 503.22 251.148 506.46 251.148 510.42V521.13ZM237.738 501.15C235.218 501.15 233.148 502.05 231.528 503.85C229.968 505.59 229.188 507.87 229.188 510.69V517.53C229.188 517.77 229.308 517.89 229.548 517.89H246.018C246.258 517.89 246.378 517.77 246.378 517.53V510.69C246.378 507.87 245.568 505.59 243.948 503.85C242.388 502.05 240.318 501.15 237.738 501.15ZM281.783 497.28C283.283 497.28 284.573 497.58 285.653 498.18C286.073 498.42 286.223 498.81 286.103 499.35L285.383 502.41C285.203 502.95 284.813 503.1 284.213 502.86C283.253 502.5 282.083 502.35 280.703 502.41C278.303 502.47 276.353 503.67 274.853 506.01C273.353 508.35 272.603 511.23 272.603 514.65V542.1C272.603 542.7 272.303 543 271.703 543H268.733C268.133 543 267.833 542.7 267.833 542.1V498.54C267.833 497.94 268.133 497.64 268.733 497.64H271.703C272.303 497.64 272.603 497.94 272.603 498.54V504.12C272.603 504.3 272.663 504.39 272.783 504.39C272.903 504.39 272.993 504.3 273.053 504.12C273.893 501.96 275.033 500.28 276.473 499.08C277.973 497.88 279.743 497.28 281.783 497.28ZM311.686 543.72C307.666 543.72 304.426 542.49 301.966 540.03C299.566 537.51 298.366 534.24 298.366 530.22V510.42C298.366 506.46 299.596 503.22 302.056 500.7C304.516 498.18 307.726 496.92 311.686 496.92C315.766 496.92 319.036 498.18 321.496 500.7C323.956 503.16 325.186 506.4 325.186 510.42V530.22C325.186 534.24 323.956 537.51 321.496 540.03C319.036 542.49 315.766 543.72 311.686 543.72ZM311.686 539.49C314.266 539.49 316.366 538.62 317.986 536.88C319.606 535.08 320.416 532.8 320.416 530.04V510.69C320.416 507.87 319.606 505.59 317.986 503.85C316.366 502.05 314.266 501.15 311.686 501.15C309.166 501.15 307.096 502.05 305.476 503.85C303.916 505.59 303.136 507.87 303.136 510.69V530.04C303.136 532.8 303.916 535.08 305.476 536.88C307.096 538.62 309.166 539.49 311.686 539.49ZM373.464 543C372.924 543 372.594 542.73 372.474 542.19L363.024 498.63V498.45C363.024 497.91 363.294 497.64 363.834 497.64H366.714C367.314 497.64 367.644 497.91 367.704 498.45L374.904 535.17C374.964 535.35 375.024 535.44 375.084 535.44C375.144 535.44 375.204 535.35 375.264 535.17L382.554 498.45C382.674 497.91 383.004 497.64 383.544 497.64H386.154C386.754 497.64 387.084 497.91 387.144 498.45L394.524 535.17C394.584 535.35 394.644 535.44 394.704 535.44C394.764 535.44 394.824 535.35 394.884 535.17L402.264 498.45C402.384 497.91 402.714 497.64 403.254 497.64L406.044 497.73C406.344 497.73 406.554 497.82 406.674 498C406.854 498.18 406.914 498.42 406.854 498.72L397.224 542.19C397.164 542.73 396.834 543 396.234 543H393.264C392.724 543 392.394 542.73 392.274 542.19L384.984 506.82C384.924 506.64 384.864 506.55 384.804 506.55C384.744 506.55 384.684 506.64 384.624 506.82L377.514 542.19C377.454 542.73 377.124 543 376.524 543H373.464ZM433.418 543.72C429.398 543.72 426.158 542.49 423.698 540.03C421.298 537.51 420.098 534.24 420.098 530.22V510.42C420.098 506.46 421.328 503.22 423.788 500.7C426.248 498.18 429.458 496.92 433.418 496.92C437.498 496.92 440.768 498.18 443.228 500.7C445.688 503.16 446.918 506.4 446.918 510.42V530.22C446.918 534.24 445.688 537.51 443.228 540.03C440.768 542.49 437.498 543.72 433.418 543.72ZM433.418 539.49C435.998 539.49 438.098 538.62 439.718 536.88C441.338 535.08 442.148 532.8 442.148 530.04V510.69C442.148 507.87 441.338 505.59 439.718 503.85C438.098 502.05 435.998 501.15 433.418 501.15C430.898 501.15 428.828 502.05 427.208 503.85C425.648 505.59 424.868 507.87 424.868 510.69V530.04C424.868 532.8 425.648 535.08 427.208 536.88C428.828 538.62 430.898 539.49 433.418 539.49ZM478.078 497.28C479.578 497.28 480.868 497.58 481.948 498.18C482.368 498.42 482.518 498.81 482.398 499.35L481.678 502.41C481.498 502.95 481.108 503.1 480.508 502.86C479.548 502.5 478.378 502.35 476.998 502.41C474.598 502.47 472.648 503.67 471.148 506.01C469.648 508.35 468.898 511.23 468.898 514.65V542.1C468.898 542.7 468.598 543 467.998 543H465.028C464.428 543 464.128 542.7 464.128 542.1V498.54C464.128 497.94 464.428 497.64 465.028 497.64H467.998C468.598 497.64 468.898 497.94 468.898 498.54V504.12C468.898 504.3 468.958 504.39 469.078 504.39C469.198 504.39 469.288 504.3 469.348 504.12C470.188 501.96 471.328 500.28 472.768 499.08C474.268 497.88 476.038 497.28 478.078 497.28ZM509.954 497.28C511.454 497.28 512.744 497.58 513.824 498.18C514.244 498.42 514.394 498.81 514.274 499.35L513.554 502.41C513.374 502.95 512.984 503.1 512.384 502.86C511.424 502.5 510.254 502.35 508.874 502.41C506.474 502.47 504.524 503.67 503.024 506.01C501.524 508.35 500.774 511.23 500.774 514.65V542.1C500.774 542.7 500.474 543 499.874 543H496.904C496.304 543 496.004 542.7 496.004 542.1V498.54C496.004 497.94 496.304 497.64 496.904 497.64H499.874C500.474 497.64 500.774 497.94 500.774 498.54V504.12C500.774 504.3 500.834 504.39 500.954 504.39C501.074 504.39 501.164 504.3 501.224 504.12C502.064 501.96 503.204 500.28 504.644 499.08C506.144 497.88 507.914 497.28 509.954 497.28ZM531.03 488.55C529.71 488.55 528.63 488.13 527.79 487.29C526.95 486.45 526.53 485.37 526.53 484.05C526.53 482.73 526.95 481.65 527.79 480.81C528.63 479.97 529.71 479.55 531.03 479.55C532.35 479.55 533.43 479.97 534.27 480.81C535.11 481.65 535.53 482.73 535.53 484.05C535.53 485.37 535.11 486.45 534.27 487.29C533.43 488.13 532.35 488.55 531.03 488.55ZM529.59 543C528.99 543 528.69 542.7 528.69 542.1V498.54C528.69 497.94 528.99 497.64 529.59 497.64H532.56C533.16 497.64 533.46 497.94 533.46 498.54V542.1C533.46 542.7 533.16 543 532.56 543H529.59ZM578.287 521.13C578.287 521.73 577.987 522.03 577.387 522.03H556.687C556.447 522.03 556.327 522.15 556.327 522.39V530.04C556.327 532.8 557.107 535.08 558.667 536.88C560.287 538.62 562.357 539.49 564.877 539.49C566.977 539.49 568.777 538.86 570.277 537.6C571.777 536.34 572.767 534.69 573.247 532.65C573.427 532.11 573.757 531.84 574.237 531.84L577.117 532.02C577.357 532.02 577.567 532.08 577.747 532.2C577.927 532.32 577.987 532.5 577.927 532.74V533.1C577.327 536.4 575.887 539.01 573.607 540.93C571.327 542.79 568.417 543.72 564.877 543.72C560.917 543.72 557.707 542.49 555.247 540.03C552.787 537.51 551.557 534.27 551.557 530.31V510.42C551.557 506.46 552.787 503.22 555.247 500.7C557.707 498.18 560.917 496.92 564.877 496.92C568.897 496.92 572.137 498.18 574.597 500.7C577.057 503.22 578.287 506.46 578.287 510.42V521.13ZM564.877 501.15C562.357 501.15 560.287 502.05 558.667 503.85C557.107 505.59 556.327 507.87 556.327 510.69V517.53C556.327 517.77 556.447 517.89 556.687 517.89H573.157C573.397 517.89 573.517 517.77 573.517 517.53V510.69C573.517 507.87 572.707 505.59 571.087 503.85C569.527 502.05 567.457 501.15 564.877 501.15ZM605.867 543.45C601.967 543.45 598.817 542.4 596.417 540.3C594.077 538.14 592.907 535.38 592.907 532.02V531.48C592.907 530.88 593.207 530.58 593.807 530.58H596.597C597.197 530.58 597.497 530.88 597.497 531.48V532.02C597.497 534.18 598.277 535.98 599.837 537.42C601.397 538.86 603.407 539.58 605.867 539.58C608.267 539.58 610.187 538.86 611.627 537.42C613.127 535.92 613.877 534 613.877 531.66C613.877 529.92 613.457 528.48 612.617 527.34C611.777 526.2 610.727 525.3 609.467 524.64C608.207 523.92 606.497 523.11 604.337 522.21C601.997 521.25 600.077 520.32 598.577 519.42C597.077 518.46 595.787 517.17 594.707 515.55C593.687 513.87 593.177 511.77 593.177 509.25C593.177 505.59 594.317 502.68 596.597 500.52C598.877 498.36 601.907 497.28 605.687 497.28C609.527 497.28 612.587 498.39 614.867 500.61C617.147 502.83 618.287 505.71 618.287 509.25V509.52C618.287 510.12 617.987 510.42 617.387 510.42H614.687C614.087 510.42 613.787 510.12 613.787 509.52V509.07C613.787 506.85 613.037 504.99 611.537 503.49C610.037 501.99 608.087 501.24 605.687 501.24C603.287 501.24 601.367 501.99 599.927 503.49C598.487 504.93 597.767 506.82 597.767 509.16C597.767 510.78 598.157 512.13 598.937 513.21C599.717 514.29 600.677 515.16 601.817 515.82C603.017 516.48 604.667 517.29 606.767 518.25C609.227 519.27 611.237 520.26 612.797 521.22C614.417 522.12 615.797 523.41 616.937 525.09C618.077 526.77 618.647 528.9 618.647 531.48C618.647 535.08 617.477 537.99 615.137 540.21C612.797 542.37 609.707 543.45 605.867 543.45Z" fill="white"/>
</svg>
